<?xml version="1.0" encoding="UTF-8" standalone="no"?>
<!-- Created with Inkscape (http://www.inkscape.org/) -->

<svg
   width="128"
   height="483.77954"
   viewBox="0 0 33.866666 128"
   version="1.1"
   id="svg5"
   inkscape:version="1.1 (ce6663b3b7, 2021-05-25)"
   sodipodi:docname="desenho.svg"
   xmlns:inkscape="http://www.inkscape.org/namespaces/inkscape"
   xmlns:sodipodi="http://sodipodi.sourceforge.net/DTD/sodipodi-0.dtd"
   xmlns:xlink="http://www.w3.org/1999/xlink"
   xmlns="http://www.w3.org/2000/svg"
   xmlns:svg="http://www.w3.org/2000/svg">
  <sodipodi:namedview
     id="namedview7"
     pagecolor="#ffffff"
     bordercolor="#ffffff"
     borderopacity="1"
     inkscape:pageshadow="0"
     inkscape:pageopacity="0"
     inkscape:pagecheckerboard="false"
     inkscape:document-units="px"
     showgrid="false"
     showborder="true"
     inkscape:zoom="0.67528301"
     inkscape:cx="230.27382"
     inkscape:cy="311.72116"
     inkscape:window-width="1366"
     inkscape:window-height="707"
     inkscape:window-x="0"
     inkscape:window-y="24"
     inkscape:window-maximized="1"
     inkscape:current-layer="layer1"
     inkscape:lockguides="false"
     showguides="true"
     guidecolor="#0000ff"
     guideopacity="0.6745098"
     width="128mm"
     units="px"
     borderlayer="false">
    <sodipodi:guide
       position="0,297"
       orientation="0,793.70079"
       id="guide62428" />
    <sodipodi:guide
       position="210,297"
       orientation="1122.5197,0"
       id="guide62430" />
    <sodipodi:guide
       position="210,0"
       orientation="0,-793.70079"
       id="guide62432" />
    <sodipodi:guide
       position="0,0"
       orientation="-1122.5197,0"
       id="guide62434" />
  </sodipodi:namedview>
  <defs
     id="defs2">
    <linearGradient
       inkscape:collect="always"
       id="linearGradient29685">
      <stop
         style="stop-color:#ffff00;stop-opacity:1;"
         offset="0"
         id="stop29681" />
      <stop
         style="stop-color:#ffff00;stop-opacity:0;"
         offset="1"
         id="stop29683" />
    </linearGradient>
    <rect
       x="-480.24899"
       y="-202.94531"
       width="555.05609"
       height="242.2637"
       id="rect15235" />
    <color-profile
       name="Artifex-CMYK-SWOP-Profile"
       xlink:href="file:///snap/inkscape/9090/usr/share/color/icc/ghostscript/default_cmyk.icc"
       id="color-profile62625" />
    <rect
       x="-217.56612"
       y="337.91678"
       width="1200.8163"
       height="391.07748"
       id="rect2673" />
    <radialGradient
       inkscape:collect="always"
       xlink:href="#linearGradient29685"
       id="radialGradient29689"
       cx="142.43666"
       cy="81.002144"
       fx="142.43666"
       fy="81.002144"
       r="101.15102"
       gradientTransform="matrix(1.4584666,0.01208581,-0.00872597,0.96107805,-65.273635,1.2920173)"
       gradientUnits="userSpaceOnUse" />
    <radialGradient
       inkscape:collect="always"
       xlink:href="#linearGradient29685"
       id="radialGradient29800"
       cx="142.43666"
       cy="81.002144"
       fx="142.43666"
       fy="81.002144"
       r="101.15102"
       gradientTransform="matrix(1.4584666,0.01208581,-0.00872597,0.96107805,-65.273635,1.2920173)"
       gradientUnits="userSpaceOnUse" />
    <radialGradient
       inkscape:collect="always"
       xlink:href="#linearGradient29685"
       id="radialGradient29808"
       cx="142.43666"
       cy="81.002144"
       fx="142.43666"
       fy="81.002144"
       r="101.15102"
       gradientTransform="matrix(1.4584666,0.01208581,-0.00872597,0.96107805,-65.273635,1.2920173)"
       gradientUnits="userSpaceOnUse" />
  </defs>
  <g
     inkscape:label="Camada 1"
     inkscape:groupmode="layer"
     id="layer1">
    <g
       id="g62447"
       transform="matrix(0.74210707,0,0,1,19.656289,0)"
       inkscape:export-filename="/home/leo/Área de Trabalho/noticias/app/static/img/desenho.png"
       inkscape:export-xdpi="96"
       inkscape:export-ydpi="96">
      <g
         id="g60340"
         transform="translate(0.06024699)">
        <g
           aria-label="FN"
           transform="matrix(1.2287688,0,0,1.2132679,662.49747,287.20963)"
           id="text15233"
           style="font-size:40px;line-height:1.25;font-family:'New Rocker';-inkscape-font-specification:'New Rocker, Normal';white-space:pre;shape-inside:url(#rect15235);fill:#ff0000">
          <g
             id="g62384"
             transform="translate(6.7291304)">
            <path
               d="m -480.96805,-193.19605 q 1.72,-0.68 3.12,-1.84 1.4,-1.16 2.44,-2.48 1.84,0.6 3.16,0.96 1.32,0.36 2.44,0.56 1.12,0.2 2.2,0.28 1.12,0.04 2.52,0.04 -0.4,-0.68 -0.56,-1.2 -0.16,-0.56 -0.2,-1.16 2.64,1.68 5.24,2.28 2.6,0.56 4.88,0.56 0.72,0 1.36,-0.04 0.64,-0.08 1.24,-0.16 -0.96,0.88 -2.32,1.68 -1.36,0.76 -2.88,1.36 -1.48,0.6 -3.04,0.96 -1.56,0.36 -2.88,0.36 -0.92,0 -2.04,-0.04 -1.12,-0.04 -2.04,-0.12 -0.08,0.6 -0.12,1.24 0,0.64 0,1.32 v 4.6 q 0.8,0.16 1.8,0.16 0.92,0 1.88,-0.4 0.96,-0.44 1.88,-0.96 1.12,0.76 2.32,1.6 1.2,0.84 2.56,1.64 -1.16,0.68 -2.44,1.6 -1.28,0.92 -2.4,1.72 -0.84,-0.56 -1.8,-0.92 -0.92,-0.36 -1.84,-0.36 -0.96,0 -1.92,0.28 0.04,1.52 0,3.28 0,1.72 0.24,3.36 0.24,1.6 0.84,3 0.6,1.36 1.84,2.12 -1.72,0.8 -2.64,1.76 -0.88,0.96 -1.76,2.12 -0.68,-1.16 -2.28,-2.2 -1.56,-1 -3.36,-1.68 0.4,-0.6 0.68,-1.36 0.32,-0.8 0.52,-1.68 0.2,-0.92 0.28,-1.84 0.12,-0.96 0.12,-1.88 0,-2.04 -0.48,-3.8 -0.44,-1.76 -1.28,-2.64 1.04,-1.44 1.44,-3.76 0.44,-2.36 0.44,-4.92 0,-0.56 -0.04,-1.12 0,-0.6 -0.04,-1.16 -1.44,-0.44 -2.8,-0.8 -1.32,-0.4 -2.28,-0.4 -0.56,0 -1.04,0.08 -0.44,0.04 -0.92,0.12 z"
               id="path60342" />
            <path
               d="m -445.18632,-171.48375 c -0.13333,-2.64 -0.24,-5.17333 -0.32,-7.6 -0.0533,-2.42667 -0.10667,-4.57333 -0.16,-6.44 -0.0267,-1.86667 -0.0533,-3.36 -0.08,-4.48 v -1.72 c -0.13333,-1.62667 -0.97333,-2.74667 -2.52,-3.36 0.26667,0.0267 0.52,0.04 0.76,0.04 h 0.8 c 1.2,0 2.29333,-0.0533 3.28,-0.16 1.01333,-0.13333 1.93333,-0.26667 2.76,-0.4 0.82667,-0.13333 1.57333,-0.25333 2.24,-0.36 0.69333,-0.13333 1.33333,-0.2 1.92,-0.2 0.32,0 0.62667,0.04 0.92,0.12 -1.6,1.14667 -2.84,2.4 -3.72,3.76 -0.85333,1.33333 -1.28,2.84 -1.28,4.52 0,1.97333 0.65333,4.21333 1.96,6.72 -0.61333,1.54667 -1.12,3.21333 -1.52,5 -0.37333,1.78667 -0.56,3.57333 -0.56,5.36 0,0.77333 0.0267,1.66667 0.08,2.68 0.08,0.98667 0.21333,1.96 0.4,2.92 0.63716,1.45189 0.94888,1.53387 1.47145,1.86113 3.66613,2.29592 -5.56121,0.12856 -7.95145,-2.34113 -1.38667,-1.46667 -2.66667,-3.01333 -3.84,-4.64 -1.14667,-1.65333 -2.18667,-3.32 -3.12,-5 -0.90667,-1.68 -1.72,-3.28 -2.44,-4.8 v 4.08 c 0,1.65333 0.0533,3.04 0.16,4.16 0.10667,1.12 0.28,2.09333 0.52,2.92 0.24,0.82667 0.54667,1.56 0.92,2.2 0.37333,0.61333 0.82667,1.24 1.36,1.88 -0.58667,-0.16 -1.10667,-0.32 -1.56,-0.48 -0.42667,-0.16 -0.85333,-0.34667 -1.28,-0.56 -0.4,-0.21333 -0.82667,-0.48 -1.28,-0.8 -0.42667,-0.32 -0.93333,-0.72 -1.52,-1.2 -0.72,1.28 -1.68,2.38667 -2.88,3.32 -1.2,0.93333 -2.81333,1.73333 -4.84,2.4 0.8,-0.77333 1.54667,-1.65333 2.24,-2.64 0.69333,-0.96 1.29333,-1.98667 1.8,-3.08 0.53333,-1.12 0.94667,-2.26667 1.24,-3.44 0.32,-1.17333 0.48,-2.36 0.48,-3.56 0,-1.12 -0.14667,-2.2 -0.44,-3.24 -0.26667,-1.04 -0.72,-2.04 -1.36,-3 1.30667,-2.50667 1.96,-4.74667 1.96,-6.72 0,-1.68 -0.44,-3.18667 -1.32,-4.52 -0.85333,-1.36 -2.08,-2.61333 -3.68,-3.76 0.26667,-0.08 0.57333,-0.12 0.92,-0.12 0.53333,0 1.13333,0.0667 1.8,0.2 0.69333,0.10667 1.44,0.22667 2.24,0.36 0.82667,0.13333 1.70667,0.26667 2.64,0.4 0.96,0.10667 1.98667,0.16 3.08,0.16 h 0.76 c 0.26667,0 0.53333,-0.0133 0.8,-0.04 -1.44,0.56 -2.26667,1.54667 -2.48,2.96 0.48,1.2 1.05333,2.58667 1.72,4.16 0.69333,1.57333 1.45333,3.22667 2.28,4.96 0.85333,1.73333 1.77333,3.49333 2.76,5.28 0.98667,1.76 2.01333,3.44 3.08,5.04 z"
               id="path60344"
               style="fill:#ff0000"
               sodipodi:nodetypes="ccccccsscscsccsccsccsccccsssccccccsccccsccsccscccsscccccsc" />
          </g>
        </g>
      </g>
      <text
         xml:space="preserve"
         id="text2671-0"
         style="font-style:normal;font-weight:normal;font-size:16.1161px;line-height:1.25;font-family:sans-serif;white-space:pre;fill:#ff0000;fill-opacity:1;stroke:none"
         transform="matrix(0.60044824,0,0,0.62851154,21.331593,19.810138)"><textPath
           xlink:href="#path28643"
           id="textPath28782-5"
           style="fill:#ff0000;fill-opacity:1"><tspan
             id="tspan2675-1"
             style="font-style:normal;font-variant:normal;font-weight:normal;font-stretch:normal;font-size:26.8601px;font-family:Sahadeva;-inkscape-font-specification:'Sahadeva, Normal';font-variant-ligatures:normal;font-variant-caps:normal;font-variant-numeric:normal;font-variant-east-asian:normal;fill:#ff0000;fill-opacity:1">Fatimense Notícias</tspan></textPath></text>
      <text
         xml:space="preserve"
         id="text2671"
         style="font-style:normal;font-weight:normal;font-size:16.1161px;line-height:1.25;font-family:sans-serif;white-space:pre;fill:url(#radialGradient29689);fill-opacity:1;stroke:none"
         transform="matrix(0.60044824,0,0,0.62851154,21.271346,19.810138)"><textPath
           xlink:href="#path28643"
           id="textPath28782"
           style="fill:url(#radialGradient29689);fill-opacity:1"><tspan
             id="tspan2675"
             style="font-style:normal;font-variant:normal;font-weight:normal;font-stretch:normal;font-size:26.8601px;font-family:Sahadeva;-inkscape-font-specification:'Sahadeva, Normal';font-variant-ligatures:normal;font-variant-caps:normal;font-variant-numeric:normal;font-variant-east-asian:normal;fill:url(#radialGradient29689);fill-opacity:1">Fatimense Notícias</tspan></textPath></text>
    </g>
    <path
       style="display:none;fill:none;stroke:#000000;stroke-width:0.332044px;stroke-linecap:butt;stroke-linejoin:miter;stroke-opacity:1"
       d="M 42.380706,84.296625 C 113.34974,91.295578 181.58496,89.132337 249.1482,84.717008"
       id="path28643"
       sodipodi:nodetypes="cc" />
  </g>
</svg>
